<svg id="Layer_1" data-name="Layer 1" xmlns="http://www.w3.org/2000/svg" xmlns:xlink="http://www.w3.org/1999/xlink" viewBox="0 0 3898.63 3007.74"><defs><style>.cls-1{fill:url(#linear-gradient);}.cls-2{fill:url(#linear-gradient-2);}.cls-3{fill:url(#linear-gradient-3);}.cls-4{fill:url(#linear-gradient-5);}.cls-5{fill:url(#linear-gradient-6);}.cls-6{fill:url(#linear-gradient-7);}.cls-7{fill:url(#linear-gradient-8);}.cls-8{fill:url(#linear-gradient-10);}.cls-9{fill:#fff;}</style><linearGradient id="linear-gradient" x1="2531.48" y1="2412.76" x2="3342.96" y2="1610.1" gradientTransform="matrix(-0.96, -0.28, -0.28, 0.96, 5701.15, 820.03)" gradientUnits="userSpaceOnUse"><stop offset="0" stop-color="#60c5bf"/><stop offset="0.33" stop-color="#05add1"/><stop offset="0.47" stop-color="#0fa1cb"/><stop offset="0.71" stop-color="#2a82bb"/><stop offset="1" stop-color="#4f56a5"/></linearGradient><linearGradient id="linear-gradient-2" x1="2802.49" y1="2391.52" x2="3671.31" y2="1460.96" xlink:href="#linear-gradient"/><linearGradient id="linear-gradient-3" x1="2495.92" y1="889.75" x2="3461.78" y2="1792.77" gradientTransform="matrix(-0.96, -0.28, -0.28, 0.96, 5701.15, 820.03)" gradientUnits="userSpaceOnUse"><stop offset="0" stop-color="#45489d"/><stop offset="1" stop-color="#c46bab"/></linearGradient><linearGradient id="linear-gradient-5" x1="2258.37" y1="756.4" x2="3224.16" y2="1659.35" xlink:href="#linear-gradient-3"/><linearGradient id="linear-gradient-6" x1="2059.89" y1="3122.94" x2="2871.39" y2="2320.26" gradientTransform="translate(1007.07 -524.76) rotate(15.98)" xlink:href="#linear-gradient"/><linearGradient id="linear-gradient-7" x1="2330.91" y1="3101.71" x2="3199.74" y2="2171.14" gradientTransform="translate(1007.07 -524.76) rotate(15.98)" xlink:href="#linear-gradient"/><linearGradient id="linear-gradient-8" x1="2024.39" y1="1599.92" x2="2990.22" y2="2502.91" gradientTransform="translate(1007.07 -524.76) rotate(15.98)" xlink:href="#linear-gradient-3"/><linearGradient id="linear-gradient-10" x1="1786.84" y1="1466.57" x2="2752.61" y2="2369.5" gradientTransform="translate(1007.07 -524.76) rotate(15.98)" xlink:href="#linear-gradient-3"/></defs><path class="cls-1" d="M2192.42,1114.27c-142.21,78.88-48.67,458.12,49,634.22L2511.84,2236a156.74,156.74,0,0,1-61.05,213.15l-137.11,76.07-76-137.11L1967.2,1900.6C1812.5,1621.72,1913.53,1269,2192.42,1114.27Z" transform="translate(-579.57 -767.79)"/><path class="cls-2" d="M1967.2,1900.6c-103.78-187.08-92.32-407.33,10.56-578.81-36.09,146.43,36.74,403.34,112.15,539.28l270.4,487.47a156.49,156.49,0,0,1,.89,150.28l-47.52,26.36-76-137.12Z" transform="translate(-579.57 -767.79)"/><path class="cls-3" d="M2192.42,1114.27l487.46-270.42L2817,767.79,2893,904.9A156.76,156.76,0,0,1,2832,1118.06l-487.45,270.42c-127.7,70.83-173.95,232.31-103.11,360C2143.75,1572.39,2050.21,1193.15,2192.42,1114.27Z" transform="translate(-579.57 -767.79)"/><path class="cls-3" d="M2192.42,1114.27l487.46-270.42L2817,767.79,2893,904.9A156.76,156.76,0,0,1,2832,1118.06l-487.45,270.42c-127.7,70.83-173.95,232.31-103.11,360C2143.75,1572.39,2050.21,1193.15,2192.42,1114.27Z" transform="translate(-579.57 -767.79)"/><path class="cls-4" d="M2197,1271.61,2756.2,961.36,2884.8,890,2893,904.9A156.76,156.76,0,0,1,2832,1118.06l-487.45,270.42c-124.73,69.19-171.69,224.83-107.8,351a.61.61,0,0,1,0,.12c-49.24-92.21-96.4-234-111.76-360.82C2137.27,1330,2160.19,1292,2197,1271.61Z" transform="translate(-579.57 -767.79)"/><path class="cls-5" d="M3179.39,2135c78.9,142.2-201.22,414.43-377.31,512.12l-487.46,270.42a156.76,156.76,0,0,0-61,213.16l76.06,137.11,137.11-76.07,487.47-270.4C3233.09,2766.66,3334.11,2413.91,3179.39,2135Z" transform="translate(-579.57 -767.79)"/><path class="cls-6" d="M2954.21,2921.37c187.08-103.78,293.95-296.7,297.45-496.64-46.9,143.33-244.68,322.73-380.63,398.15L2383.57,3093.3a156.49,156.49,0,0,0-80.3,127l26.36,47.52,137.11-76.07Z" transform="translate(-579.57 -767.79)"/><path class="cls-7" d="M3179.39,2135,2909,1647.56l-76.06-137.11-137.1,76.06a156.77,156.77,0,0,0-61,213.16l270.4,487.47c70.84,127.7,24.6,289.17-103.1,360C2978.17,2549.46,3258.29,2277.23,3179.39,2135Z" transform="translate(-579.57 -767.79)"/><path class="cls-7" d="M3179.39,2135,2909,1647.56l-76.06-137.11-137.1,76.06a156.77,156.77,0,0,0-61,213.16l270.4,487.47c70.84,127.7,24.6,289.17-103.1,360C2978.17,2549.46,3258.29,2277.23,3179.39,2135Z" transform="translate(-579.57 -767.79)"/><path class="cls-8" d="M3092.25,2266.11,2782,1706.86l-71.34-128.6-14.86,8.25a156.77,156.77,0,0,0-61,213.16l270.4,487.47c69.2,124.72,26.64,281.63-94.37,354.87a.69.69,0,0,1,0,.13c90.6-52.17,205.66-147.5,285.83-247C3112,2347.26,3112.65,2302.88,3092.25,2266.11Z" transform="translate(-579.57 -767.79)"/><path class="cls-9" d="M733.59,3775.13c-57.61,0-113.22-18-154-57.21l47.2-47.21c33.21,30,71.62,44,109.22,44,53.21,0,72.42-16.8,72.42-34.8,0-10.41-9.21-26.41-51.61-36.81-7.2-1.6-52.41-12.8-60-14.8-57.61-14.81-109.22-36.41-109.22-91.22,0-51.61,49.21-94,142-94,58,0,106,19.61,141.23,55.61l-47.61,47.21c-22.41-25.6-56.81-42.4-94.42-42.4-52.81,0-72,16.8-72,32,0,13.6,14.8,22,67.21,35.21,7.2,2,44.81,11.6,52.41,13.2,67.61,16.4,101.22,51.61,101.22,94.82C877.62,3728.72,833.61,3775.13,733.59,3775.13Z" transform="translate(-579.57 -767.79)"/><path class="cls-9" d="M1177.67,3771.53h-66.82v-14.4h-.8c-18.8,12.4-44.8,18.4-70.41,18.4-49.61,0-114-18-114-82.81,0-76.42,104.42-84,168.43-84,2,0,20,0,22.4.4l-6.8-6.4c-1.6-21.2-20.8-32-50.81-32-25.2,0-51.2,6-74,21.2l-41.21-41.61c34.41-24.4,73.22-34.8,116-34.8,68,0,118,30,118,99.21Zm-60.42-109.62c-2.4-.4-13.6-.4-15.2-.4-10.8,0-21.2,0-34.8.8-13.21.4-27.21,1.6-39.61,4.4-25.21,5.2-35.61,14-35.61,26.81,0,18.4,24,26.4,50,26.4,20.41,0,68.81-2.4,68.81-27.6v-24Z" transform="translate(-579.57 -767.79)"/><path class="cls-9" d="M1283.68,3502.28c-21.6,0-36-16-36-36.8s14.4-36.81,36-36.81c21.21,0,36,16,36,36.81S1304.89,3502.28,1283.68,3502.28Zm33.21,268.85h-66.81v-252h66.81Z" transform="translate(-579.57 -767.79)"/><path class="cls-9" d="M1595.73,3771.13h-68V3447.08h68Z" transform="translate(-579.57 -767.79)"/><path class="cls-9" d="M1941.78,3507.89H1826.16l3.61,6.4v256.84h-68V3514.29l3.6-6.4H1649.73v-60.81h292Z" transform="translate(-579.57 -767.79)"/><path class="cls-9" d="M2263.84,3775.13c-57.61,0-113.22-18-154-57.21l47.21-47.21c33.2,30,71.61,44,109.22,44,53.21,0,72.41-16.8,72.41-34.8,0-10.41-9.2-26.41-51.61-36.81-7.2-1.6-52.41-12.8-60-14.8-57.61-14.81-109.22-36.41-109.22-91.22,0-51.61,49.21-94,142-94,58,0,106,19.61,141.22,55.61l-47.61,47.21c-22.4-25.6-56.81-42.4-94.42-42.4-52.8,0-72,16.8-72,32,0,13.6,14.8,22,67.21,35.21,7.2,2,44.81,11.6,52.41,13.2,67.62,16.4,101.22,51.61,101.22,94.82C2407.86,3728.72,2363.85,3775.13,2263.84,3775.13Z" transform="translate(-579.57 -767.79)"/><path class="cls-9" d="M2589.89,3775.13c-89.62,0-134-56.81-134-130s44.41-130,133.63-130c90,0,134.42,56.41,134.42,130C2723.91,3717.92,2678.7,3775.13,2589.89,3775.13Zm0-202.43c-47.21,0-67.21,28.8-67.21,72.41,0,43.21,20.8,72.81,67.21,72.81,46.81,0,67.21-29.6,67.21-72.81S2636.7,3572.7,2589.89,3572.7Z" transform="translate(-579.57 -767.79)"/><path class="cls-9" d="M2851.93,3771.13h-66.81V3435.07h66.81Z" transform="translate(-579.57 -767.79)"/><path class="cls-9" d="M3172,3771.53h-66.81v-22h-.8c-16.41,16.4-42.41,25.6-70,25.6-76.42,0-110.82-40.4-110.42-102.42V3519.09h66.81v150c0,30.41,12.8,48.41,53.61,48.41,36.4,0,60.81-18,60.81-51.21V3519.09H3172Z" transform="translate(-579.57 -767.79)"/><path class="cls-9" d="M3426,3737.13c-26,25.6-50.81,38-82.41,38-58,0-86-30-86-88.81V3578.7l3.2-6H3224v-53.61h36.8l-3.2-6v-30l66.82-35.61v65.62l-3.61,6h78v53.61h-78l3.61,6v107.62c0,20.8,10.4,31.6,25.2,31.6,13.6,0,24.4-6,37.21-20Z" transform="translate(-579.57 -767.79)"/><path class="cls-9" d="M3504.43,3502.28c-21.6,0-36-16-36-36.8s14.4-36.81,36-36.81c21.21,0,36,16,36,36.81S3525.64,3502.28,3504.43,3502.28Zm33.21,268.85h-66.81v-252h66.81Z" transform="translate(-579.57 -767.79)"/><path class="cls-9" d="M3732.47,3775.13c-89.62,0-134-56.81-134-130s44.4-130,133.62-130c90,0,134.42,56.41,134.42,130C3866.49,3717.92,3821.28,3775.13,3732.47,3775.13Zm0-202.43c-47.21,0-67.21,28.8-67.21,72.41,0,43.21,20.8,72.81,67.21,72.81,46.81,0,67.21-29.6,67.21-72.81S3779.28,3572.7,3732.47,3572.7Z" transform="translate(-579.57 -767.79)"/><path class="cls-9" d="M4178.54,3771.13h-66.41v-150c0-30.41-7.6-48.41-55.61-48.41-36.81,0-62,18-62,51.21v147.22H3927.7V3518.69h66.81v22h.8c17.2-15.6,44.81-25.6,72.81-25.6,66.81,0,110.82,36.8,110.82,99.61Z" transform="translate(-579.57 -767.79)"/><path class="cls-9" d="M4362.57,3775.53c-46,0-87.61-15.6-124.82-47.61l42.81-43.2c21.2,22.4,52,35.2,80.81,35.2,38.41,0,49.61-12,49.61-21.2,0-8-3.6-14.4-32.81-21.6-5.6-1.2-39.6-10.41-45.2-11.61-43.21-10.8-87.62-28.4-87.62-74.41,0-43.61,41.61-75.61,113.22-75.61,47.21,0,84.42,14,113.22,42l-41.61,41.21c-18-17.6-44-28.4-71.21-28.4-37.61,0-46.41,12.8-46.41,20,0,10.4,13.6,14.4,44.41,22,5.2,1.2,34.81,9.21,40.41,10.81,53.21,13.2,80.81,34.8,80.81,72.81C4478.19,3738.73,4440.58,3775.53,4362.57,3775.53Z" transform="translate(-579.57 -767.79)"/></svg>