<?xml version="1.0" encoding="utf-8"?>
<!-- Generator: Adobe Illustrator 24.3.0, SVG Export Plug-In . SVG Version: 6.00 Build 0)  -->
<svg version="1.1" id="Layer_1" xmlns="http://www.w3.org/2000/svg" xmlns:xlink="http://www.w3.org/1999/xlink" x="0px" y="0px"
	 viewBox="0 0 4697.9 2012.1" style="enable-background:new 0 0 4697.9 2012.1;" xml:space="preserve">
<style type="text/css">
	.st0{fill:url(#SVGID_1_);}
	.st1{fill:url(#SVGID_2_);}
	.st2{fill:url(#SVGID_3_);}
	.st3{fill:url(#SVGID_4_);}
	.st4{fill:url(#SVGID_5_);}
	.st5{fill:url(#SVGID_6_);}
	.st6{fill:url(#SVGID_7_);}
	.st7{fill:url(#SVGID_8_);}
	.st8{fill:url(#SVGID_9_);}
	.st9{fill:url(#SVGID_10_);}
	.st10{fill:#231F20;}
</style>
<linearGradient id="SVGID_1_" gradientUnits="userSpaceOnUse" x1="8422.6328" y1="-1802.0648" x2="9075.7432" y2="-1156.0548" gradientTransform="matrix(-0.96 -0.28 0.28 -0.96 9145.5205 1955.2542)">
	<stop  offset="0" style="stop-color:#60C5BF"/>
	<stop  offset="0.33" style="stop-color:#05ADD1"/>
	<stop  offset="0.47" style="stop-color:#0FA1CB"/>
	<stop  offset="0.71" style="stop-color:#2A82BB"/>
	<stop  offset="1" style="stop-color:#4F56A5"/>
</linearGradient>
<path class="st0" d="M239.7,278.9c-114.5,63.5-39.2,368.7,39.5,510.4l217.5,392.3c33.8,60.9,11.8,137.7-49.1,171.5c0,0,0,0,0,0
	l-110.3,61.2L276,1304.1L58.4,911.7C-66.1,687.3,15.2,403.4,239.7,278.9z"/>
<linearGradient id="SVGID_2_" gradientUnits="userSpaceOnUse" x1="8641.1211" y1="-1784.9459" x2="9340.3711" y2="-1036.006" gradientTransform="matrix(-0.96 -0.28 0.28 -0.96 9145.5205 1955.2542)">
	<stop  offset="0" style="stop-color:#60C5BF"/>
	<stop  offset="0.33" style="stop-color:#05ADD1"/>
	<stop  offset="0.47" style="stop-color:#0FA1CB"/>
	<stop  offset="0.71" style="stop-color:#2A82BB"/>
	<stop  offset="1" style="stop-color:#4F56A5"/>
</linearGradient>
<path class="st1" d="M58.4,911.7c-83.5-150.6-74.3-327.8,8.5-465.8c-29,117.8,29.6,324.6,90.3,434l217.6,392.3
	c20.8,37.6,21.1,83.1,0.7,120.9l-38.2,21.2L276,1304.1L58.4,911.7z"/>
<linearGradient id="SVGID_3_" gradientUnits="userSpaceOnUse" x1="8372.9336" y1="-589.0983" x2="9150.293" y2="-1315.8783" gradientTransform="matrix(-0.96 -0.28 0.28 -0.96 9145.5205 1955.2542)">
	<stop  offset="0" style="stop-color:#45489D"/>
	<stop  offset="1" style="stop-color:#C46BAB"/>
</linearGradient>
<path class="st2" d="M239.7,278.9L632,61.2L742.3,0l61.2,110.3c33.8,60.9,11.8,137.7-49.1,171.6c0,0,0,0,0,0L362.1,499.5
	c-102.8,57-140,187-83,289.8C200.5,647.6,125.2,342.3,239.7,278.9z"/>
<linearGradient id="SVGID_4_" gradientUnits="userSpaceOnUse" x1="8372.9336" y1="-589.0983" x2="9150.293" y2="-1315.8783" gradientTransform="matrix(-0.96 -0.28 0.28 -0.96 9145.5205 1955.2542)">
	<stop  offset="0" style="stop-color:#45489D"/>
	<stop  offset="1" style="stop-color:#C46BAB"/>
</linearGradient>
<path class="st3" d="M239.7,278.9L632,61.2L742.3,0l61.2,110.3c33.8,60.9,11.8,137.7-49.1,171.6c0,0,0,0,0,0L362.1,499.5
	c-102.8,57-140,187-83,289.8C200.5,647.6,125.2,342.3,239.7,278.9z"/>
<linearGradient id="SVGID_5_" gradientUnits="userSpaceOnUse" x1="8181.7422" y1="-481.7792" x2="8959.042" y2="-1208.4991" gradientTransform="matrix(-0.96 -0.28 0.28 -0.96 9145.5205 1955.2542)">
	<stop  offset="0" style="stop-color:#45489D"/>
	<stop  offset="1" style="stop-color:#C46BAB"/>
</linearGradient>
<path class="st4" d="M243.3,405.5l450.1-249.7l103.5-57.4l6.6,12c33.8,60.9,11.8,137.7-49.1,171.6c0,0,0,0,0,0L362.1,499.5
	c-100.4,55.7-138.2,180.9-86.8,282.5c0,0,0,0.1,0,0.1c-39.6-74.2-77.6-188.3-90-290.4C195.2,452.5,213.7,421.9,243.3,405.5z"/>
<linearGradient id="SVGID_6_" gradientUnits="userSpaceOnUse" x1="332.3229" y1="-2358.6763" x2="985.4429" y2="-1712.6562" gradientTransform="matrix(0.9614 0.2753 0.2753 -0.9614 517.4351 -526.5237)">
	<stop  offset="0" style="stop-color:#60C5BF"/>
	<stop  offset="0.33" style="stop-color:#05ADD1"/>
	<stop  offset="0.47" style="stop-color:#0FA1CB"/>
	<stop  offset="0.71" style="stop-color:#2A82BB"/>
	<stop  offset="1" style="stop-color:#4F56A5"/>
</linearGradient>
<path class="st5" d="M1034,1100.4c63.5,114.4-162,333.6-303.7,412.2L338,1730.2c-60.9,33.8-82.9,110.6-49.2,171.5c0,0,0,0,0,0.1
	l61.2,110.3l110.3-61.2l392.3-217.6C1077.2,1608.8,1158.5,1324.8,1034,1100.4z"/>
<linearGradient id="SVGID_7_" gradientUnits="userSpaceOnUse" x1="550.4691" y1="-2341.605" x2="1249.7291" y2="-1592.6449" gradientTransform="matrix(0.9614 0.2753 0.2753 -0.9614 517.4351 -526.5237)">
	<stop  offset="0" style="stop-color:#60C5BF"/>
	<stop  offset="0.33" style="stop-color:#05ADD1"/>
	<stop  offset="0.47" style="stop-color:#0FA1CB"/>
	<stop  offset="0.71" style="stop-color:#2A82BB"/>
	<stop  offset="1" style="stop-color:#4F56A5"/>
</linearGradient>
<path class="st6" d="M852.7,1733.3c150.6-83.5,236.6-238.8,239.4-399.7c-37.7,115.4-196.9,259.8-306.3,320.4l-392.3,217.6
	c-37.6,20.8-61.9,59.4-64.6,102.2l21.2,38.2l110.3-61.2L852.7,1733.3z"/>
<linearGradient id="SVGID_8_" gradientUnits="userSpaceOnUse" x1="303.6433" y1="-1132.8385" x2="1080.9733" y2="-1859.5984" gradientTransform="matrix(0.9614 0.2753 0.2753 -0.9614 517.4351 -526.5237)">
	<stop  offset="0" style="stop-color:#45489D"/>
	<stop  offset="1" style="stop-color:#C46BAB"/>
</linearGradient>
<path class="st7" d="M1034,1100.4L816.3,708.1l-61.2-110.3L644.8,659c-60.9,33.8-82.9,110.6-49.1,171.5c0,0,0,0,0,0l217.6,392.3
	c57,102.8,19.8,232.7-83,289.7C872,1434,1097.5,1214.8,1034,1100.4z"/>
<linearGradient id="SVGID_9_" gradientUnits="userSpaceOnUse" x1="303.6433" y1="-1132.8385" x2="1080.9733" y2="-1859.5984" gradientTransform="matrix(0.9614 0.2753 0.2753 -0.9614 517.4351 -526.5237)">
	<stop  offset="0" style="stop-color:#45489D"/>
	<stop  offset="1" style="stop-color:#C46BAB"/>
</linearGradient>
<path class="st8" d="M1034,1100.4L816.3,708.1l-61.2-110.3L644.8,659c-60.9,33.8-82.9,110.6-49.1,171.5c0,0,0,0,0,0l217.6,392.3
	c57,102.8,19.8,232.7-83,289.7C872,1434,1097.5,1214.8,1034,1100.4z"/>
<linearGradient id="SVGID_10_" gradientUnits="userSpaceOnUse" x1="112.4494" y1="-1025.5225" x2="889.7295" y2="-1752.2228" gradientTransform="matrix(0.9614 0.2753 0.2753 -0.9614 517.4351 -526.5237)">
	<stop  offset="0" style="stop-color:#45489D"/>
	<stop  offset="1" style="stop-color:#C46BAB"/>
</linearGradient>
<path class="st9" d="M963.8,1205.9L714.2,755.8l-57.4-103.5l-12,6.6c-60.9,33.8-82.9,110.6-49.1,171.5c0,0,0,0,0,0l217.6,392.3
	c55.7,100.4,21.4,226.7-76,285.6c0,0,0,0.1,0,0.1c72.9-42,165.5-118.7,230-198.8C979.7,1271.2,980.2,1235.5,963.8,1205.9z"/>
<path class="st10" d="M1512.1,929.6c-82.9,0-162.9-27.6-221.6-87.6l67.9-72.3c47.8,45.9,103,67.4,157.1,67.4
	c76.6,0,104.2-25.7,104.2-53.3c0-15.9-13.2-40.4-74.2-56.3c-10.4-2.4-75.4-19.6-86.3-22.7c-82.9-22.7-157.1-55.7-157.1-139.6
	c0-79,70.8-143.9,204.3-143.9c83.5,0,152.5,30,203.2,85.1l-68.5,72.3c-32.2-39.2-81.7-64.9-135.8-64.9c-76,0-103.6,25.7-103.6,49
	c0,20.8,21.3,33.7,96.7,53.9c10.4,3.1,64.5,17.8,75.4,20.2c97.3,25.1,145.6,79,145.6,145.1C1719.3,858.5,1656,929.6,1512.1,929.6z"
	/>
<path class="st10" d="M2151,924.1h-96.1v-22h-1.1c-27,19-64.5,28.2-101.3,28.2c-71.4,0-164.1-27.6-164.1-126.8
	c0-117,150.2-128.6,242.3-128.6c2.9,0,28.8,0,32.2,0.6l-9.8-9.8c-2.3-32.4-29.9-49-73.1-49c-36.3,0-73.7,9.2-106.5,32.5l-59.3-63.7
	c49.5-37.3,105.3-53.3,166.9-53.3c97.8,0,169.8,45.9,169.8,151.9L2151,924.1z M2064.1,756.3c-3.5-0.6-19.6-0.6-21.9-0.6
	c-15.5,0-30.5,0-50.1,1.2c-19,0.6-39.1,2.4-57,6.7c-36.3,8-51.2,21.4-51.2,41c0,28.2,34.5,40.4,71.9,40.4c29.4,0,99-3.7,99-42.2
	v-36.7L2064.1,756.3z"/>
<path class="st10" d="M2303.5,511.9c-31.1,0-51.8-24.5-51.8-56.3s20.7-56.3,51.8-56.3c30.5,0,51.8,24.5,51.8,56.3
	S2334,511.9,2303.5,511.9z M2351.3,923.4h-96.1V537.6h96.1V923.4z"/>
<path class="st10" d="M2752.5,923.5h-97.8v-496h97.9L2752.5,923.5z"/>
<path class="st10" d="M3250.4,520.5H3084l5.2,9.8v393.2h-97.9V530.3l5.2-9.8h-166.3v-93.1h420.2V520.5z"/>
<path class="st10" d="M1512.1,1580.1c-82.9,0-162.9-27.6-221.6-87.6l67.9-72.3c47.8,45.9,103,67.4,157.1,67.4
	c76.6,0,104.2-25.7,104.2-53.3c0-15.9-13.2-40.4-74.2-56.3c-10.4-2.4-75.4-19.6-86.3-22.6c-82.9-22.7-157.1-55.7-157.1-139.6
	c0-79,70.8-143.9,204.3-143.9c83.5,0,152.5,30,203.2,85.1l-68.5,72.3c-32.2-39.2-81.7-64.9-135.8-64.9c-76,0-103.6,25.7-103.6,49
	c0,20.8,21.3,33.7,96.7,53.9c10.4,3.1,64.5,17.8,75.4,20.2c97.3,25.1,145.6,79,145.6,145.1C1719.3,1509.1,1656,1580.1,1512.1,1580.1
	z"/>
<path class="st10" d="M1981.2,1580.1c-128.9,0-192.8-87-192.8-199s63.9-199,192.2-199c129.5,0,193.4,86.4,193.4,199
	C2174,1492.5,2109,1580.1,1981.2,1580.1z M1981.2,1270.2c-67.9,0-96.7,44.1-96.7,110.8c0,66.1,29.9,111.4,96.7,111.4
	c67.3,0,96.7-45.3,96.7-111.4S2048.6,1270.2,1981.2,1270.2L1981.2,1270.2z"/>
<path class="st10" d="M2358.2,1574h-96.1v-514.4h96.1V1574z"/>
<path class="st10" d="M2818.7,1574.6h-96.1v-33.7h-1.1c-23.6,25.1-61,39.2-100.7,39.2c-109.9,0-159.4-61.9-158.9-156.8v-235.1h96.1
	v229.6c0,46.5,18.4,74.1,77.1,74.1c52.4,0,87.5-27.6,87.5-78.4v-225.4h96.1V1574.6z"/>
<path class="st10" d="M3184.2,1521.9c-37.4,39.2-73.1,58.2-118.6,58.2c-83.5,0-123.8-45.9-123.8-135.9v-164.7l4.6-9.2h-53v-82.1h53
	l-4.6-9.2v-45.9l96.1-54.5V1179l-5.2,9.2H3145v82.1h-112.2l5.2,9.2v164.7c0,31.8,15,48.4,36.3,48.4c19.6,0,35.1-9.2,53.5-30.6
	L3184.2,1521.9z"/>
<path class="st10" d="M3297,1162.5c-31.1,0-51.8-24.5-51.8-56.3s20.7-56.3,51.8-56.3c30.5,0,51.8,24.5,51.8,56.3
	S3327.5,1162.5,3297,1162.5z M3344.8,1574h-96.1v-385.8h96.1L3344.8,1574z"/>
<path class="st10" d="M3625.1,1580.1c-128.9,0-192.8-87-192.8-199s63.9-199,192.2-199c129.5,0,193.4,86.4,193.4,199
	C3817.9,1492.5,3752.8,1580.1,3625.1,1580.1z M3625.1,1270.2c-67.9,0-96.7,44.1-96.7,110.8c0,66.1,29.9,111.4,96.7,111.4
	c67.3,0,96.7-45.3,96.7-111.4S3692.4,1270.2,3625.1,1270.2L3625.1,1270.2z"/>
<path class="st10" d="M4266.8,1574h-95.5v-229.6c0-46.5-10.9-74.1-80-74.1c-53,0-89.2,27.6-89.2,78.4V1574h-96.1v-386.4h96.1v33.7
	h1.1c24.8-23.9,64.5-39.2,104.8-39.2c96.1,0,159.4,56.3,159.4,152.5L4266.8,1574z"/>
<path class="st10" d="M4531.6,1580.7c-66.2,0-126-23.9-179.6-72.9l61.6-66.1c30.5,34.3,74.8,53.9,116.3,53.9
	c55.2,0,71.4-18.4,71.4-32.5c0-12.2-5.2-22-47.2-33.1c-8.1-1.8-57-15.9-65-17.8c-62.2-16.5-126-43.5-126-113.9
	c0-66.8,59.9-115.7,162.9-115.7c67.9,0,121.4,21.4,162.9,64.3l-59.9,63.1c-26.9-27.7-63.8-43.4-102.5-43.5
	c-54.1,0-66.8,19.6-66.8,30.6c0,15.9,19.6,22,63.9,33.7c7.5,1.8,50.1,14.1,58.1,16.5c76.5,20.2,116.3,53.3,116.3,111.5
	C4697.9,1524.4,4643.8,1580.7,4531.6,1580.7z"/>
</svg>
