<?xml version="1.0" encoding="utf-8"?>
<!-- Generator: Adobe Illustrator 24.3.0, SVG Export Plug-In . SVG Version: 6.00 Build 0)  -->
<svg version="1.1" id="Layer_1" xmlns="http://www.w3.org/2000/svg" xmlns:xlink="http://www.w3.org/1999/xlink" x="0px" y="0px"
	 viewBox="0 0 5000 5000" style="enable-background:new 0 0 5000 5000;" xml:space="preserve">
<style type="text/css">
	.st0{fill:url(#SVGID_1_);}
	.st1{fill:url(#SVGID_2_);}
	.st2{fill:url(#SVGID_3_);}
	.st3{fill:url(#SVGID_4_);}
	.st4{fill:url(#SVGID_5_);}
	.st5{fill:url(#SVGID_6_);}
	.st6{fill:url(#SVGID_7_);}
	.st7{fill:url(#SVGID_8_);}
	.st8{fill:url(#SVGID_9_);}
	.st9{fill:url(#SVGID_10_);}
	.st10{fill:#282D44;}
</style>
<g>
	<g>
		<g>
			
				<linearGradient id="SVGID_1_" gradientUnits="userSpaceOnUse" x1="2531.4802" y1="2412.7625" x2="3342.96" y2="1610.1035" gradientTransform="matrix(-0.9614 -0.2753 -0.2753 0.9614 5701.1528 820.0263)">
				<stop  offset="0" style="stop-color:#60C5BF"/>
				<stop  offset="0.3314" style="stop-color:#05ADD1"/>
				<stop  offset="0.4138" style="stop-color:#18A7CE"/>
				<stop  offset="0.5622" style="stop-color:#2E96C6"/>
				<stop  offset="0.7594" style="stop-color:#427BB7"/>
				<stop  offset="0.9958" style="stop-color:#4F57A6"/>
				<stop  offset="1" style="stop-color:#4F56A5"/>
			</linearGradient>
			<path class="st0" d="M2192.42,1114.27c-142.21,78.88-48.67,458.12,49.01,634.21l270.41,487.47
				c42.03,75.73,14.68,171.17-61.05,213.16l-137.11,76.07l-76.05-137.11L1967.2,1900.6
				C1812.51,1621.72,1913.53,1268.97,2192.42,1114.27z"/>
			
				<linearGradient id="SVGID_2_" gradientUnits="userSpaceOnUse" x1="2802.4878" y1="2391.5186" x2="3671.3054" y2="1460.9563" gradientTransform="matrix(-0.9614 -0.2753 -0.2753 0.9614 5701.1528 820.0263)">
				<stop  offset="0" style="stop-color:#60C5BF"/>
				<stop  offset="0.3314" style="stop-color:#05ADD1"/>
				<stop  offset="0.4138" style="stop-color:#18A7CE"/>
				<stop  offset="0.5622" style="stop-color:#2E96C6"/>
				<stop  offset="0.7594" style="stop-color:#427BB7"/>
				<stop  offset="0.9958" style="stop-color:#4F57A6"/>
				<stop  offset="1" style="stop-color:#4F56A5"/>
			</linearGradient>
			<path class="st1" d="M1967.2,1900.6c-103.78-187.08-92.32-407.33,10.55-578.81c-36.09,146.43,36.74,403.33,112.15,539.28
				l270.4,487.47c26.88,48.43,25.27,104.86,0.89,150.27l-47.52,26.36l-76.05-137.12L1967.2,1900.6z"/>
			
				<linearGradient id="SVGID_3_" gradientUnits="userSpaceOnUse" x1="2495.9211" y1="889.7504" x2="3461.7839" y2="1792.767" gradientTransform="matrix(-0.9614 -0.2753 -0.2753 0.9614 5701.1528 820.0263)">
				<stop  offset="0" style="stop-color:#45489D"/>
				<stop  offset="1" style="stop-color:#C46BAB"/>
			</linearGradient>
			<path class="st2" d="M2192.42,1114.27l487.46-270.43l137.11-76.06l76.06,137.11c42.01,75.72,14.68,171.16-61.05,213.16
				l-487.46,270.42c-127.7,70.83-173.94,232.31-103.1,360.01C2143.75,1572.39,2050.21,1193.15,2192.42,1114.27z"/>
			
				<linearGradient id="SVGID_4_" gradientUnits="userSpaceOnUse" x1="2495.9211" y1="889.7504" x2="3461.7839" y2="1792.767" gradientTransform="matrix(-0.9614 -0.2753 -0.2753 0.9614 5701.1528 820.0263)">
				<stop  offset="0" style="stop-color:#45489D"/>
				<stop  offset="1" style="stop-color:#C46BAB"/>
			</linearGradient>
			<path class="st3" d="M2192.42,1114.27l487.46-270.43l137.11-76.06l76.06,137.11c42.01,75.72,14.68,171.16-61.05,213.16
				l-487.46,270.42c-127.7,70.83-173.94,232.31-103.1,360.01C2143.75,1572.39,2050.21,1193.15,2192.42,1114.27z"/>
			
				<linearGradient id="SVGID_5_" gradientUnits="userSpaceOnUse" x1="2258.3687" y1="756.4022" x2="3224.1616" y2="1659.3536" gradientTransform="matrix(-0.9614 -0.2753 -0.2753 0.9614 5701.1528 820.0263)">
				<stop  offset="0" style="stop-color:#45489D"/>
				<stop  offset="1" style="stop-color:#C46BAB"/>
			</linearGradient>
			<path class="st4" d="M2196.97,1271.61l559.24-310.25l128.59-71.34l8.25,14.87c42.01,75.72,14.68,171.16-61.05,213.16
				l-487.46,270.42c-124.73,69.19-171.68,224.83-107.79,351.02c-0.02,0.04-0.03,0.08-0.05,0.12c-49.25-92.21-96.4-234-111.76-360.82
				C2137.27,1330.01,2160.19,1292.01,2196.97,1271.61z"/>
		</g>
		<g>
			
				<linearGradient id="SVGID_6_" gradientUnits="userSpaceOnUse" x1="2059.8865" y1="3122.9353" x2="2871.386" y2="2320.2568" gradientTransform="matrix(0.9614 0.2753 -0.2753 0.9614 1007.068 -524.7615)">
				<stop  offset="0" style="stop-color:#60C5BF"/>
				<stop  offset="0.3314" style="stop-color:#05ADD1"/>
				<stop  offset="0.4138" style="stop-color:#18A7CE"/>
				<stop  offset="0.5622" style="stop-color:#2E96C6"/>
				<stop  offset="0.7594" style="stop-color:#427BB7"/>
				<stop  offset="0.9958" style="stop-color:#4F57A6"/>
				<stop  offset="1" style="stop-color:#4F56A5"/>
			</linearGradient>
			<path class="st5" d="M3179.39,2135.03c78.89,142.2-201.22,414.43-377.31,512.12l-487.46,270.42
				c-75.75,42-103.06,137.45-61.05,213.16l76.05,137.11l137.11-76.07l487.48-270.41
				C3233.08,2766.66,3334.11,2413.91,3179.39,2135.03z"/>
			
				<linearGradient id="SVGID_7_" gradientUnits="userSpaceOnUse" x1="2330.9077" y1="3101.7114" x2="3199.7368" y2="2171.1367" gradientTransform="matrix(0.9614 0.2753 -0.2753 0.9614 1007.068 -524.7615)">
				<stop  offset="0" style="stop-color:#60C5BF"/>
				<stop  offset="0.3314" style="stop-color:#05ADD1"/>
				<stop  offset="0.4138" style="stop-color:#18A7CE"/>
				<stop  offset="0.5622" style="stop-color:#2E96C6"/>
				<stop  offset="0.7594" style="stop-color:#427BB7"/>
				<stop  offset="0.9958" style="stop-color:#4F57A6"/>
				<stop  offset="1" style="stop-color:#4F56A5"/>
			</linearGradient>
			<path class="st6" d="M2954.21,2921.37c187.08-103.78,293.95-296.7,297.44-496.64c-46.89,143.33-244.68,322.74-380.62,398.15
				l-487.46,270.42c-48.44,26.86-76.94,75.58-80.31,127.02l26.36,47.52l137.11-76.07L2954.21,2921.37z"/>
			
				<linearGradient id="SVGID_8_" gradientUnits="userSpaceOnUse" x1="2024.389" y1="1599.9176" x2="2990.2217" y2="2502.906" gradientTransform="matrix(0.9614 0.2753 -0.2753 0.9614 1007.068 -524.7615)">
				<stop  offset="0" style="stop-color:#45489D"/>
				<stop  offset="1" style="stop-color:#C46BAB"/>
			</linearGradient>
			<path class="st7" d="M3179.39,2135.03l-270.4-487.47l-76.06-137.1l-137.1,76.05c-75.73,42.01-103.06,137.44-61.05,213.16
				l270.41,487.47c70.84,127.7,24.59,289.17-103.1,360.01C2978.17,2549.46,3258.29,2277.23,3179.39,2135.03z"/>
			
				<linearGradient id="SVGID_9_" gradientUnits="userSpaceOnUse" x1="2024.389" y1="1599.9176" x2="2990.2217" y2="2502.906" gradientTransform="matrix(0.9614 0.2753 -0.2753 0.9614 1007.068 -524.7615)">
				<stop  offset="0" style="stop-color:#45489D"/>
				<stop  offset="1" style="stop-color:#C46BAB"/>
			</linearGradient>
			<path class="st8" d="M3179.39,2135.03l-270.4-487.47l-76.06-137.1l-137.1,76.05c-75.73,42.01-103.06,137.44-61.05,213.16
				l270.41,487.47c70.84,127.7,24.59,289.17-103.1,360.01C2978.17,2549.46,3258.29,2277.23,3179.39,2135.03z"/>
			
				<linearGradient id="SVGID_10_" gradientUnits="userSpaceOnUse" x1="1786.8445" y1="1466.5737" x2="2752.6062" y2="2369.4958" gradientTransform="matrix(0.9614 0.2753 -0.2753 0.9614 1007.068 -524.7615)">
				<stop  offset="0" style="stop-color:#45489D"/>
				<stop  offset="1" style="stop-color:#C46BAB"/>
			</linearGradient>
			<path class="st9" d="M3092.25,2266.11l-310.22-559.25l-71.34-128.59l-14.87,8.25c-75.73,42.01-103.06,137.44-61.05,213.16
				l270.41,487.47c69.19,124.72,26.64,281.63-94.37,354.87c-0.01,0.04-0.01,0.09-0.02,0.13c90.59-52.16,205.66-147.49,285.83-246.96
				C3111.98,2347.26,3112.65,2302.88,3092.25,2266.11z"/>
		</g>
	</g>
	<g>
		<path class="st10" d="M733.59,3775.13c-57.61,0-113.22-18-154.03-57.21l47.21-47.21c33.21,30.01,71.61,44.01,109.22,44.01
			c53.21,0,72.41-16.8,72.41-34.81c0-10.4-9.2-26.41-51.61-36.81c-7.2-1.6-52.41-12.8-60.01-14.8
			c-57.61-14.8-109.22-36.41-109.22-91.22c0-51.61,49.21-94.02,142.02-94.02c58.01,0,106.02,19.6,141.22,55.61l-47.61,47.21
			c-22.4-25.6-56.81-42.41-94.42-42.41c-52.81,0-72.01,16.8-72.01,32c0,13.6,14.8,22,67.21,35.21c7.2,2,44.81,11.6,52.41,13.2
			c67.61,16.4,101.22,51.61,101.22,94.82C877.62,3728.72,833.61,3775.13,733.59,3775.13z"/>
		<path class="st10" d="M1177.67,3771.53h-66.81v-14.4h-0.8c-18.8,12.4-44.81,18.4-70.41,18.4c-49.61,0-114.02-18-114.02-82.81
			c0-76.41,104.42-84.01,168.43-84.01c2,0,20,0,22.4,0.4l-6.8-6.4c-1.6-21.2-20.8-32.01-50.81-32.01c-25.2,0-51.21,6-74.01,21.2
			l-41.21-41.61c34.41-24.4,73.21-34.81,116.02-34.81c68.01,0,118.02,30,118.02,99.22V3771.53z M1117.25,3661.91
			c-2.4-0.4-13.6-0.4-15.2-0.4c-10.8,0-21.2,0-34.81,0.8c-13.2,0.4-27.2,1.6-39.61,4.4c-25.2,5.2-35.61,14-35.61,26.8
			c0,18.4,24,26.4,50.01,26.4c20.4,0,68.81-2.4,68.81-27.6v-24L1117.25,3661.91z"/>
		<path class="st10" d="M1283.68,3502.28c-21.6,0-36.01-16-36.01-36.81s14.4-36.81,36.01-36.81c21.2,0,36.01,16,36.01,36.81
			S1304.89,3502.28,1283.68,3502.28z M1316.89,3771.13h-66.81v-252.04h66.81V3771.13z"/>
		<path class="st10" d="M1595.73,3771.13h-68.01v-324.06h68.01V3771.13z"/>
		<path class="st10" d="M1941.78,3507.89h-115.62l3.6,6.4v256.84h-68.01v-256.84l3.6-6.4h-115.62v-60.81h292.05V3507.89z"/>
		<path class="st10" d="M2263.84,3775.13c-57.61,0-113.22-18-154.03-57.21l47.21-47.21c33.21,30.01,71.61,44.01,109.22,44.01
			c53.21,0,72.41-16.8,72.41-34.81c0-10.4-9.2-26.41-51.61-36.81c-7.2-1.6-52.41-12.8-60.01-14.8
			c-57.61-14.8-109.22-36.41-109.22-91.22c0-51.61,49.21-94.02,142.03-94.02c58.01,0,106.02,19.6,141.22,55.61l-47.61,47.21
			c-22.4-25.6-56.81-42.41-94.42-42.41c-52.81,0-72.01,16.8-72.01,32c0,13.6,14.8,22,67.21,35.21c7.2,2,44.81,11.6,52.41,13.2
			c67.61,16.4,101.22,51.61,101.22,94.82C2407.86,3728.72,2363.85,3775.13,2263.84,3775.13z"/>
		<path class="st10" d="M2589.89,3775.13c-89.62,0-134.02-56.81-134.02-130.02s44.41-130.02,133.62-130.02
			c90.02,0,134.42,56.41,134.42,130.02C2723.91,3717.92,2678.7,3775.13,2589.89,3775.13z M2589.89,3572.7
			c-47.21,0-67.21,28.8-67.21,72.41c0,43.21,20.8,72.81,67.21,72.81c46.81,0,67.21-29.61,67.21-72.81
			C2657.1,3601.9,2636.7,3572.7,2589.89,3572.7z"/>
		<path class="st10" d="M2851.93,3771.13h-66.81v-336.06h66.81V3771.13z"/>
		<path class="st10" d="M3171.98,3771.53h-66.81v-22h-0.8c-16.4,16.4-42.41,25.6-70.01,25.6c-76.41,0-110.82-40.41-110.42-102.42
			v-153.63h66.81v150.03c0,30.41,12.8,48.41,53.61,48.41c36.41,0,60.81-18,60.81-51.21v-147.23h66.81V3771.53z"/>
		<path class="st10" d="M3426.02,3737.13c-26,25.6-50.81,38.01-82.41,38.01c-58.01,0-86.02-30.01-86.02-88.82V3578.7l3.2-6h-36.81
			v-53.61h36.81l-3.2-6v-30.01l66.81-35.61v65.61l-3.6,6h78.01v53.61h-78.01l3.6,6v107.62c0,20.8,10.4,31.61,25.21,31.61
			c13.6,0,24.4-6,37.21-20L3426.02,3737.13z"/>
		<path class="st10" d="M3504.43,3502.28c-21.6,0-36.01-16-36.01-36.81s14.4-36.81,36.01-36.81c21.2,0,36.01,16,36.01,36.81
			S3525.64,3502.28,3504.43,3502.28z M3537.64,3771.13h-66.81v-252.04h66.81V3771.13z"/>
		<path class="st10" d="M3732.47,3775.13c-89.62,0-134.02-56.81-134.02-130.02s44.41-130.02,133.62-130.02
			c90.02,0,134.42,56.41,134.42,130.02C3866.49,3717.92,3821.28,3775.13,3732.47,3775.13z M3732.47,3572.7
			c-47.21,0-67.21,28.8-67.21,72.41c0,43.21,20.8,72.81,67.21,72.81c46.81,0,67.21-29.61,67.21-72.81
			C3799.68,3601.9,3779.28,3572.7,3732.47,3572.7z"/>
		<path class="st10" d="M4178.54,3771.13h-66.41v-150.03c0-30.41-7.6-48.41-55.61-48.41c-36.81,0-62.01,18-62.01,51.21v147.23
			h-66.81v-252.44h66.81v22h0.8c17.2-15.6,44.81-25.6,72.81-25.6c66.81,0,110.82,36.81,110.82,99.62L4178.54,3771.13z"/>
		<path class="st10" d="M4362.57,3775.53c-46.01,0-87.62-15.6-124.82-47.61l42.81-43.21c21.2,22.4,52.01,35.21,80.81,35.21
			c38.41,0,49.61-12,49.61-21.2c0-8-3.6-14.4-32.81-21.6c-5.6-1.2-39.61-10.4-45.21-11.6c-43.21-10.8-87.62-28.41-87.62-74.41
			c0-43.61,41.61-75.61,113.22-75.61c47.21,0,84.42,14,113.22,42.01l-41.61,41.21c-18-17.6-44.01-28.4-71.21-28.4
			c-37.61,0-46.41,12.8-46.41,20c0,10.4,13.6,14.4,44.41,22c5.2,1.2,34.81,9.2,40.41,10.8c53.21,13.2,80.81,34.81,80.81,72.81
			C4478.19,3738.73,4440.58,3775.53,4362.57,3775.53z"/>
	</g>
	<g>
		<path class="st10" d="M994.62,3914.14h-44.81l0.76,1.52v107.84h-14.43v-107.84l0.76-1.52h-44.81v-13.67h102.52V3914.14z"/>
		<path class="st10" d="M1056.13,3941.63h-4.56c-13.82,0-29.31,9.26-29.31,34.63v47.24h-13.97v-95.69h13.97v16.56h0.3
			c5.47-11.7,18.23-17.62,30.53-17.62h3.04V3941.63z"/>
		<path class="st10" d="M1154.85,4023.5h-13.97V4015h-0.3c-8.35,7.44-19.9,10.18-30.98,10.18c-19.29,0-39.04-7.44-39.04-29.47
			c0-30.07,37.97-31.14,61.21-31.14c3.49,0,8.81,0.3,10.63,0.61l-1.52-1.67v-2.13c0-16.4-12-21.72-26.28-21.72
			c-10.33,0-22.33,2.28-30.07,9.57l-9.72-9.57c11.7-9.87,24.61-13.21,39.79-13.21c20.35,0,40.25,8.05,40.25,34.78V4023.5z
			 M1142.39,3977.33c-1.82-0.15-6.68-0.46-9.72-0.46c-16.71,0-48.15-0.3-48.15,18.83c0,12.76,14.73,16.25,25.21,16.25
			c9.72,0,31.14-2.73,31.14-16.4v-16.86L1142.39,3977.33z"/>
		<path class="st10" d="M1268.45,4023.5h-13.97v-58.02c0-15.19-4.71-25.82-26.73-25.82c-16.1,0-29.31,8.96-29.31,27.04v56.81h-13.97
			v-95.69h13.97v12h0.3c6.53-8.2,18.23-13.52,30.53-13.52c25.21,0,39.19,12.91,39.19,36.15V4023.5z"/>
		<path class="st10" d="M1334.22,4025.17c-15.04,0-30.83-4.71-41.46-16.4l10.33-10.33c10.63,9.72,19.44,13.37,30.68,13.37
			c17.01,0,24.61-6.38,24.61-13.97c0-6.23-3.64-10.33-16.71-13.82c-2.13-0.61-15.04-4.41-17.01-5.01
			c-16.86-4.71-29.16-11.24-29.16-25.97c0-13.97,12-26.73,37.67-26.73c15.04,0,27.95,5.32,37.21,15.49l-10.33,10.33
			c-6.53-7.9-15.19-12.45-26.88-12.45c-16.56,0-23.54,6.68-23.54,12.91c0,5.77,5.47,9.57,21.11,13.82
			c1.97,0.61,13.21,4.1,15.34,4.71c18.99,5.16,26.43,13.82,26.43,26.12C1372.49,4011.2,1361.86,4025.17,1334.22,4025.17z"/>
		<path class="st10" d="M1443.42,3940.57h-30.38l0.76,1.52v81.41h-13.97v-81.41l0.76-1.52h-12.15v-12.76h12.15l-0.76-1.52v-1.21
			c0-18.23,11.24-29.92,30.53-29.92c4.25,0,9.72,1.06,13.06,2.43v13.06c-3.19-1.37-9.42-2.43-12.76-2.43
			c-11.39,0-16.86,6.53-16.86,17.16v0.91l-0.76,1.52h30.38V3940.57z"/>
		<path class="st10" d="M1500.67,4025.02c-30.07,0-45.11-20.66-45.11-49.36c0-28.55,15.04-49.36,45.11-49.36
			c30.22,0,45.26,20.5,45.26,49.36C1545.93,4004.06,1530.59,4025.02,1500.67,4025.02z M1500.67,3939.66
			c-22.02,0-31.14,15.64-31.14,36c0,20.2,9.26,36,31.29,36s31.14-15.8,31.14-36C1531.96,3955.46,1522.7,3939.66,1500.67,3939.66z"/>
		<path class="st10" d="M1618.83,3941.63h-4.56c-13.82,0-29.31,9.26-29.31,34.63v47.24h-13.97v-95.69h13.97v16.56h0.3
			c5.47-11.7,18.23-17.62,30.53-17.62h3.04V3941.63z"/>
		<path class="st10" d="M1764.49,4023.5h-13.97v-53.16c0-17.47-1.97-30.68-19.75-30.68c-15.19,0-22.33,12.45-22.18,26.28v57.56
			h-14.12v-56.81c0-15.64-3.04-27.19-19.59-27.19c-12.91,0-22.18,11.24-22.18,26.58v57.41h-14.12v-95.69h14.12v12h0.15
			c4.86-8.05,14.28-13.52,24.76-13.52c12.45,0,22.02,7.29,26.73,16.71h0.3c6.08-9.87,16.86-16.71,28.71-16.71
			c20.81,0,31.29,13.67,31.29,40.4L1764.49,4023.5z"/>
		<path class="st10" d="M1801.23,3915.05c-6.08,0-9.11-4.1-9.11-10.02c0-5.92,3.19-10.02,9.11-10.02c6.08,0,9.11,4.1,9.11,10.02
			C1810.35,3910.95,1807.16,3915.05,1801.23,3915.05z M1808.22,4023.5h-13.97v-95.69h13.97V4023.5z"/>
		<path class="st10" d="M1922.59,4023.5h-13.97v-58.02c0-15.19-4.71-25.82-26.73-25.82c-16.1,0-29.31,8.96-29.31,27.04v56.81h-13.97
			v-95.69h13.97v12h0.3c6.53-8.2,18.23-13.52,30.53-13.52c25.21,0,39.19,12.91,39.19,36.15V4023.5z"/>
		<path class="st10" d="M2035.43,3927.81v87.33c0,25.97-13.97,41.01-43.29,41.01c-15.19,0-28.1-4.25-39.04-12.91l10.02-10.02
			c7.29,6.08,18.68,9.72,29.01,9.72c19.29,0,29.31-10.18,29.31-27.95v-11.7h-0.3c-7.75,8.81-17.92,12.61-30.68,12.61
			c-29.16,0-43.59-17.77-43.59-44.5c0-24.76,14.89-45.11,43.59-45.11c12.91,0,24.3,5.01,30.68,13.21h0.3v-11.7H2035.43z
			 M1991.08,3939.66c-20.66,0-30.23,13.67-30.23,31.74c0,18.83,10.02,31.14,30.23,31.14c22.02,0,31.59-13.06,31.59-31.14
			C2022.68,3952.72,2011.59,3939.66,1991.08,3939.66z"/>
		<path class="st10" d="M2131.11,4023.5h-14.43v-123.03h14.43V4023.5z"/>
		<path class="st10" d="M2245.48,4023.5h-13.97v-11.09h-0.3c-6.68,8.2-16.86,12.61-29.92,12.61c-29.92,0-44.35-20.35-44.35-48.75
			c0-28.86,14.73-49.97,44.35-49.97c12.46,0,23.24,5.32,29.92,13.21h0.3v-43.44h13.97V4023.5z M2201.89,3939.66
			c-22.17,0-30.98,16.25-30.98,36.45c0,20.2,8.51,35.54,30.98,35.54c22.33,0,30.83-15.34,30.83-35.54
			C2232.72,3955.76,2224.52,3939.66,2201.89,3939.66z"/>
		<path class="st10" d="M2360.6,3982.04h-77.31l1.67,1.52c2.43,17.32,12.45,28.1,31.9,28.1c10.48,0,19.44-3.65,26.28-10.33
			l9.87,9.72c-9.27,9.11-21.72,13.97-36.3,13.97c-31.59,0-46.17-20.81-46.17-48.6c0-29.31,16.71-50.12,45.57-50.12
			c30.22,0,44.81,21.26,44.81,50.12C2360.91,3978.69,2360.76,3980.06,2360.6,3982.04z M2348.15,3969.28l-1.67-1.52
			c-2.28-16.4-11.7-28.1-30.38-28.1c-19.14,0-28.55,12.15-30.99,28.1l-1.67,1.52H2348.15z"/>
		<path class="st10" d="M2464.94,4023.5h-13.97V4015h-0.3c-8.35,7.44-19.9,10.18-30.98,10.18c-19.29,0-39.04-7.44-39.04-29.47
			c0-30.07,37.97-31.14,61.21-31.14c3.49,0,8.81,0.3,10.63,0.61l-1.52-1.67v-2.13c0-16.4-12-21.72-26.28-21.72
			c-10.33,0-22.33,2.28-30.07,9.57l-9.72-9.57c11.7-9.87,24.61-13.21,39.79-13.21c20.35,0,40.25,8.05,40.25,34.78V4023.5z
			 M2452.49,3977.33c-1.82-0.15-6.68-0.46-9.72-0.46c-16.71,0-48.15-0.3-48.15,18.83c0,12.76,14.73,16.25,25.21,16.25
			c9.72,0,31.14-2.73,31.14-16.4v-16.86L2452.49,3977.33z"/>
		<path class="st10" d="M2530.7,4025.17c-15.04,0-30.83-4.71-41.46-16.4l10.33-10.33c10.63,9.72,19.44,13.37,30.68,13.37
			c17.01,0,24.61-6.38,24.61-13.97c0-6.23-3.65-10.33-16.71-13.82c-2.13-0.61-15.04-4.41-17.01-5.01
			c-16.86-4.71-29.16-11.24-29.16-25.97c0-13.97,12-26.73,37.67-26.73c15.04,0,27.95,5.32,37.21,15.49l-10.33,10.33
			c-6.53-7.9-15.19-12.45-26.88-12.45c-16.56,0-23.54,6.68-23.54,12.91c0,5.77,5.47,9.57,21.11,13.82
			c1.97,0.61,13.21,4.1,15.34,4.71c18.99,5.16,26.43,13.82,26.43,26.12C2568.98,4011.2,2558.35,4025.17,2530.7,4025.17z"/>
		<path class="st10" d="M2651.14,3915.05c-6.08,0-9.11-4.1-9.11-10.02c0-5.92,3.19-10.02,9.11-10.02c6.08,0,9.11,4.1,9.11,10.02
			C2660.25,3910.95,2657.06,3915.05,2651.14,3915.05z M2658.13,4023.5h-13.97v-95.69h13.97V4023.5z"/>
		<path class="st10" d="M2772.49,4023.5h-13.97v-58.02c0-15.19-4.71-25.82-26.73-25.82c-16.1,0-29.31,8.96-29.31,27.04v56.81h-13.97
			v-95.69h13.97v12h0.3c6.53-8.2,18.23-13.52,30.53-13.52c25.21,0,39.19,12.91,39.19,36.15V4023.5z"/>
		<path class="st10" d="M2858.3,4014.39c-8.66,7.14-17.62,10.63-27.64,10.63c-15.95,0-26.28-10.63-26.28-29.47v-53.46l0.76-1.52
			h-12.15v-12.76h12.15l-0.76-1.52v-15.19l13.97-7.59v22.78l-0.76,1.52h30.38v12.76h-30.38l0.76,1.52v52.86
			c0,11.24,5.01,16.86,13.06,16.86c6.68,0,11.7-2.13,17.01-7.14L2858.3,4014.39z"/>
		<path class="st10" d="M2916.32,4025.02c-30.07,0-45.11-20.66-45.11-49.36c0-28.55,15.04-49.36,45.11-49.36
			c30.23,0,45.26,20.5,45.26,49.36C2961.58,4004.06,2946.24,4025.02,2916.32,4025.02z M2916.32,3939.66
			c-22.02,0-31.14,15.64-31.14,36c0,20.2,9.26,36,31.29,36c22.02,0,31.14-15.8,31.14-36
			C2947.61,3955.46,2938.34,3939.66,2916.32,3939.66z"/>
		<path class="st10" d="M3178.31,3900.47l-32.81,123.03h-18.83l-21.57-82.02l-2.28-14.58h-0.3l-2.28,14.58l-21.57,82.02h-18.99
			l-32.81-123.03h15.49l24.91,95.69l1.97,12.3h0.3l2.13-12.3l25.21-95.69h11.54l25.36,95.69l1.97,12.3h0.3l1.97-12.3l25.06-95.69
			H3178.31z"/>
		<path class="st10" d="M3277.49,3982.04h-77.31l1.67,1.52c2.43,17.32,12.45,28.1,31.9,28.1c10.48,0,19.44-3.65,26.28-10.33
			l9.87,9.72c-9.27,9.11-21.72,13.97-36.3,13.97c-31.59,0-46.17-20.81-46.17-48.6c0-29.31,16.71-50.12,45.57-50.12
			c30.22,0,44.81,21.26,44.81,50.12C3277.79,3978.69,3277.64,3980.06,3277.49,3982.04z M3265.03,3969.28l-1.67-1.52
			c-2.28-16.4-11.7-28.1-30.38-28.1c-19.14,0-28.55,12.15-30.99,28.1l-1.67,1.52H3265.03z"/>
		<path class="st10" d="M3347.05,4025.02c-13.06,0-23.24-4.4-29.92-12.61h-0.3v11.09h-13.97v-127.58h13.97v43.59h0.3
			c7.29-8.35,17.16-13.21,29.92-13.21c30.23,0,44.35,20.96,44.35,49.82C3391.4,4004.52,3376.97,4025.02,3347.05,4025.02z
			 M3346.44,3939.66c-22.48,0-30.83,16.1-30.83,36.45c0,20.2,8.51,35.54,30.99,35.54c22.48,0,30.83-15.34,30.83-35.54
			C3377.42,3955.91,3368.92,3939.66,3346.44,3939.66z"/>
		<path class="st10" d="M3455.18,4025.02c-18.99,0-33.42-6.83-44.05-18.68l10.78-10.63c7.59,9.26,18.68,15.64,33.26,15.64
			c22.93,0,31.44-12,31.44-22.02c0-12.61-9.26-21.42-28.55-23.24c-5.16-0.46-18.99-0.61-18.99-0.61v-13.21
			c0,0,14.12-0.15,18.23-0.61c20.35-2.28,26.73-12.3,26.73-20.96c0-9.26-6.99-17.92-28.86-17.92c-13.82,0-24.61,5.62-32.2,14.73
			l-10.63-10.78c10.33-11.7,24.45-17.77,42.68-17.77c31.9,0,44.05,15.64,44.05,31.74c0,12.46-8.66,21.72-21.42,27.34v0.3
			c15.19,5.47,23.85,16.71,23.85,30.98C3501.51,4006.34,3488.6,4025.02,3455.18,4025.02z"/>
		<path class="st10" d="M3681.79,4023.5h-16.25l-15.34-32.35c-5.92-12.61-15.19-18.38-31.44-18.38h-29.16l1.52,1.52v49.21h-14.43
			v-123.03h53.92c22.48,0,41.31,12,41.31,36.3c0,16.1-11.09,28.1-24.61,31.59v0.3c5.77,2.43,12,7.9,16.1,16.4L3681.79,4023.5z
			 M3630.6,3914.14h-41.01l1.52,1.52v41.92l-1.52,1.52h39.34c17.77,0,28.1-9.27,28.1-22.33
			C3657.03,3920.37,3645.64,3914.14,3630.6,3914.14z"/>
		<path class="st10" d="M3784,3982.04h-77.31l1.67,1.52c2.43,17.32,12.45,28.1,31.9,28.1c10.48,0,19.44-3.65,26.28-10.33l9.87,9.72
			c-9.27,9.11-21.72,13.97-36.3,13.97c-31.59,0-46.17-20.81-46.17-48.6c0-29.31,16.71-50.12,45.57-50.12
			c30.22,0,44.81,21.26,44.81,50.12C3784.3,3978.69,3784.15,3980.06,3784,3982.04z M3771.54,3969.28l-1.67-1.52
			c-2.28-16.4-11.7-28.1-30.38-28.1c-19.14,0-28.55,12.15-30.99,28.1l-1.67,1.52H3771.54z"/>
		<path class="st10" d="M3888.34,4023.5h-13.97V4015h-0.3c-8.35,7.44-19.9,10.18-30.98,10.18c-19.29,0-39.04-7.44-39.04-29.47
			c0-30.07,37.97-31.14,61.21-31.14c3.49,0,8.81,0.3,10.63,0.61l-1.52-1.67v-2.13c0-16.4-12-21.72-26.28-21.72
			c-10.33,0-22.33,2.28-30.07,9.57l-9.72-9.57c11.7-9.87,24.61-13.21,39.79-13.21c20.35,0,40.25,8.05,40.25,34.78V4023.5z
			 M3875.88,3977.33c-1.82-0.15-6.68-0.46-9.72-0.46c-16.71,0-48.15-0.3-48.15,18.83c0,12.76,14.73,16.25,25.21,16.25
			c9.72,0,31.14-2.73,31.14-16.4v-16.86L3875.88,3977.33z"/>
		<path class="st10" d="M3931.92,4023.5h-13.97v-127.58h13.97V4023.5z"/>
		<path class="st10" d="M3969.28,3915.05c-6.08,0-9.11-4.1-9.11-10.02c0-5.92,3.19-10.02,9.11-10.02c6.08,0,9.11,4.1,9.11,10.02
			C3978.4,3910.95,3975.21,3915.05,3969.28,3915.05z M3976.27,4023.5h-13.97v-95.69h13.97V4023.5z"/>
		<path class="st10" d="M4062.84,4014.39c-8.66,7.14-17.62,10.63-27.64,10.63c-15.95,0-26.28-10.63-26.28-29.47v-53.46l0.76-1.52
			h-12.15v-12.76h12.15l-0.76-1.52v-15.19l13.97-7.59v22.78l-0.76,1.52h30.38v12.76h-30.38l0.76,1.52v52.86
			c0,11.24,5.01,16.86,13.06,16.86c6.68,0,11.7-2.13,17.01-7.14L4062.84,4014.39z"/>
		<path class="st10" d="M4165.66,3927.81l-43.29,106.02c-5.62,13.82-15.64,22.33-27.64,22.33c-7.14,0-13.06-1.21-17.92-3.8v-13.21
			c4.4,2.43,10.48,3.8,16.1,3.8c8.35,0,14.43-6.68,19.44-19.59l-42.68-95.54h15.64l29.77,68.5l4.1,12.15h0.3l3.95-12.15l26.58-68.5
			H4165.66z"/>
	</g>
</g>
</svg>
