<svg id="Layer_1" data-name="Layer 1" xmlns="http://www.w3.org/2000/svg" xmlns:xlink="http://www.w3.org/1999/xlink" viewBox="0 0 4697.93 2012.13"><defs><style>.cls-1{fill:url(#linear-gradient);}.cls-2{fill:url(#linear-gradient-2);}.cls-3{fill:url(#linear-gradient-3);}.cls-4{fill:url(#linear-gradient-5);}.cls-5{fill:url(#linear-gradient-6);}.cls-6{fill:url(#linear-gradient-7);}.cls-7{fill:url(#linear-gradient-8);}.cls-8{fill:url(#linear-gradient-10);}.cls-9{fill:#fff;}</style><linearGradient id="linear-gradient" x1="4234.47" y1="3209.58" x2="4887.58" y2="2563.57" gradientTransform="matrix(-0.96, -0.28, -0.28, 0.96, 5701.15, 820.03)" gradientUnits="userSpaceOnUse"><stop offset="0" stop-color="#60c5bf"/><stop offset="0.33" stop-color="#05add1"/><stop offset="0.47" stop-color="#0fa1cb"/><stop offset="0.71" stop-color="#2a82bb"/><stop offset="1" stop-color="#4f56a5"/></linearGradient><linearGradient id="linear-gradient-2" x1="4452.59" y1="3192.48" x2="5151.84" y2="2443.54" xlink:href="#linear-gradient"/><linearGradient id="linear-gradient-3" x1="4205.85" y1="1983.81" x2="4983.21" y2="2710.59" gradientTransform="matrix(-0.96, -0.28, -0.28, 0.96, 5701.15, 820.03)" gradientUnits="userSpaceOnUse"><stop offset="0" stop-color="#45489d"/><stop offset="1" stop-color="#c46bab"/></linearGradient><linearGradient id="linear-gradient-5" x1="4014.66" y1="1876.49" x2="4791.96" y2="2603.21" xlink:href="#linear-gradient-3"/><linearGradient id="linear-gradient-6" x1="413.76" y1="3781.27" x2="1066.88" y2="3135.25" gradientTransform="translate(1007.07 -524.76) rotate(15.98)" xlink:href="#linear-gradient"/><linearGradient id="linear-gradient-7" x1="631.89" y1="3764.19" x2="1331.15" y2="3015.23" gradientTransform="translate(1007.07 -524.76) rotate(15.98)" xlink:href="#linear-gradient"/><linearGradient id="linear-gradient-8" x1="385.19" y1="2555.49" x2="1162.52" y2="3282.25" gradientTransform="translate(1007.07 -524.76) rotate(15.98)" xlink:href="#linear-gradient-3"/><linearGradient id="linear-gradient-10" x1="194" y1="2448.17" x2="971.28" y2="3174.87" gradientTransform="translate(1007.07 -524.76) rotate(15.98)" xlink:href="#linear-gradient-3"/></defs><path class="cls-1" d="M416,1670.77c-114.45,63.49-39.17,368.71,39.45,510.44L673,2573.54a126.17,126.17,0,0,1-49.13,171.56l-110.35,61.22L452.35,2696,234.7,2303.63C110.19,2079.19,191.5,1795.28,416,1670.77Z" transform="translate(-176.34 -1391.91)"/><path class="cls-2" d="M234.7,2303.63c-83.52-150.56-74.31-327.82,8.49-465.84-29,117.85,29.57,324.62,90.27,434l217.63,392.33a126,126,0,0,1,.71,120.95l-38.24,21.22L452.35,2696Z" transform="translate(-176.34 -1391.91)"/><path class="cls-3" d="M416,1670.77l392.33-217.65,110.34-61.21,61.22,110.35a126.18,126.18,0,0,1-49.14,171.56L538.39,1891.46c-102.78,57-140,187-83,289.75C376.79,2039.48,301.51,1734.26,416,1670.77Z" transform="translate(-176.34 -1391.91)"/><path class="cls-3" d="M416,1670.77l392.33-217.65,110.34-61.21,61.22,110.35a126.18,126.18,0,0,1-49.14,171.56L538.39,1891.46c-102.78,57-140,187-83,289.75C376.79,2039.48,301.51,1734.26,416,1670.77Z" transform="translate(-176.34 -1391.91)"/><path class="cls-4" d="M419.62,1797.4l450.09-249.69,103.5-57.42,6.64,12a126.18,126.18,0,0,1-49.14,171.56L538.39,1891.46C438,1947.15,400.21,2072.41,451.63,2174a.36.36,0,0,1,0,.09c-39.63-74.21-77.58-188.33-89.95-290.4C371.57,1844.4,390,1813.82,419.62,1797.4Z" transform="translate(-176.34 -1391.91)"/><path class="cls-5" d="M1210.31,2492.31c63.5,114.45-162,333.55-303.67,412.17L514.31,3122.13a126.15,126.15,0,0,0-49.13,171.55L526.39,3404l110.35-61.22,392.34-217.64C1253.52,3000.67,1334.83,2716.76,1210.31,2492.31Z" transform="translate(-176.34 -1391.91)"/><path class="cls-6" d="M1029.08,3125.18c150.56-83.52,236.58-238.79,239.39-399.71-37.74,115.36-196.93,259.75-306.34,320.45L569.81,3263.56a125.93,125.93,0,0,0-64.63,102.23L526.39,3404l110.35-61.22Z" transform="translate(-176.34 -1391.91)"/><path class="cls-7" d="M1210.31,2492.31,992.68,2100l-61.21-110.35-110.35,61.21A126.17,126.17,0,0,0,772,2222.4l217.63,392.34c57,102.77,19.79,232.73-83,289.74C1048.36,2825.86,1273.81,2606.76,1210.31,2492.31Z" transform="translate(-176.34 -1391.91)"/><path class="cls-7" d="M1210.31,2492.31,992.68,2100l-61.21-110.35-110.35,61.21A126.17,126.17,0,0,0,772,2222.4l217.63,392.34c57,102.77,19.79,232.73-83,289.74C1048.36,2825.86,1273.81,2606.76,1210.31,2492.31Z" transform="translate(-176.34 -1391.91)"/><path class="cls-8" d="M1140.17,2597.81,890.5,2147.7l-57.41-103.49-12,6.63A126.17,126.17,0,0,0,772,2222.4l217.63,392.34c55.69,100.38,21.44,226.66-76,285.6,0,0,0,.07,0,.11,72.91-42,165.52-118.71,230-198.76C1156.06,2663.12,1156.59,2627.4,1140.17,2597.81Z" transform="translate(-176.34 -1391.91)"/><path class="cls-9" d="M1688.46,2321.48c-82.88,0-162.89-27.56-221.6-87.57l67.92-72.26c47.78,45.93,103,67.36,157.14,67.36,76.55,0,104.18-25.72,104.18-53.28,0-15.92-13.24-40.41-74.25-56.33-10.36-2.45-75.41-19.6-86.34-22.66-82.89-22.66-157.14-55.73-157.14-139.63,0-79,70.8-143.9,204.34-143.9,83.46,0,152.53,30,203.18,85.12l-68.5,72.26c-32.23-39.19-81.73-64.91-135.84-64.91-76,0-103.6,25.72-103.6,49,0,20.82,21.3,33.68,96.7,53.88,10.36,3.07,64.46,17.76,75.4,20.21,97.27,25.11,145.62,79,145.62,145.14C1895.67,2250.44,1832.36,2321.48,1688.46,2321.48Z" transform="translate(-176.34 -1391.91)"/><path class="cls-9" d="M2327.35,2316h-96.12v-22h-1.15c-27,19-64.47,28.17-101.3,28.17-71.38,0-164.05-27.55-164.05-126.76,0-117,150.23-128.6,242.32-128.6,2.88,0,28.78,0,32.24.61l-9.79-9.8c-2.3-32.45-29.93-49-73.1-49-36.26,0-73.67,9.19-106.48,32.46l-59.28-63.69c49.5-37.35,105.33-53.27,166.91-53.27,97.85,0,169.8,45.92,169.8,151.87Zm-86.91-167.79c-3.46-.62-19.57-.62-21.87-.62-15.54,0-30.51,0-50.08,1.23-19,.61-39.14,2.45-57,6.74-36.26,8-51.23,21.43-51.23,41,0,28.16,34.54,40.41,71.95,40.41,29.35,0,99-3.67,99-42.25V2158Z" transform="translate(-176.34 -1391.91)"/><path class="cls-9" d="M2479.88,1903.84c-31.08,0-51.8-24.5-51.8-56.34s20.72-56.34,51.8-56.34c30.51,0,51.8,24.5,51.8,56.34S2510.39,1903.84,2479.88,1903.84Zm47.77,411.52h-96.12v-385.8h96.12Z" transform="translate(-176.34 -1391.91)"/><path class="cls-9" d="M2928.83,2315.36H2831v-496h97.85Z" transform="translate(-176.34 -1391.91)"/><path class="cls-9" d="M3426.7,1912.41H3260.36l5.18,9.8v393.15h-97.85V1922.21l5.18-9.8H3006.52v-93.08H3426.7Z" transform="translate(-176.34 -1391.91)"/><path class="cls-9" d="M1688.46,2972c-82.88,0-162.89-27.56-221.6-87.57l67.92-72.26c47.78,45.93,103,67.36,157.14,67.36,76.55,0,104.18-25.72,104.18-53.28,0-15.92-13.24-40.41-74.25-56.34-10.36-2.45-75.41-19.59-86.34-22.65-82.89-22.66-157.14-55.73-157.14-139.63,0-79,70.8-143.91,204.34-143.91,83.46,0,152.53,30,203.18,85.12l-68.5,72.27c-32.23-39.2-81.73-64.92-135.84-64.92-76,0-103.6,25.72-103.6,49,0,20.82,21.3,33.68,96.7,53.89,10.36,3.07,64.46,17.76,75.4,20.21,97.27,25.11,145.62,79,145.62,145.14C1895.67,2901,1832.36,2972,1688.46,2972Z" transform="translate(-176.34 -1391.91)"/><path class="cls-9" d="M2157.55,2972c-128.93,0-192.82-87-192.82-199s63.89-199,192.25-199c129.51,0,193.4,86.35,193.4,199C2350.38,2884.45,2285.33,2972,2157.55,2972Zm0-309.86c-67.91,0-96.69,44.09-96.69,110.84,0,66.13,29.93,111.45,96.69,111.45,67.35,0,96.7-45.32,96.7-111.45S2224.9,2662.16,2157.55,2662.16Z" transform="translate(-176.34 -1391.91)"/><path class="cls-9" d="M2534.56,2965.89h-96.13V2451.5h96.13Z" transform="translate(-176.34 -1391.91)"/><path class="cls-9" d="M2995,2966.51h-96.13v-33.68h-1.15c-23.6,25.1-61,39.19-100.72,39.19-109.94,0-159.44-61.85-158.87-156.77V2580.1h96.13v229.64c0,46.54,18.41,74.1,77.12,74.1,52.38,0,87.49-27.56,87.49-78.39V2580.1H2995Z" transform="translate(-176.34 -1391.91)"/><path class="cls-9" d="M3360.51,2913.84c-37.41,39.2-73.1,58.18-118.57,58.18-83.46,0-123.75-45.93-123.75-135.95V2671.34l4.61-9.18h-53V2580.1h53l-4.61-9.19V2525l96.12-54.5v100.43l-5.18,9.19h112.24v82.06H3209.13l5.18,9.18v164.73c0,31.84,15,48.38,36.27,48.38,19.57,0,35.11-9.19,53.52-30.62Z" transform="translate(-176.34 -1391.91)"/><path class="cls-9" d="M3473.32,2554.38c-31.08,0-51.8-24.5-51.8-56.34s20.72-56.34,51.8-56.34c30.51,0,51.8,24.49,51.8,56.34S3503.83,2554.38,3473.32,2554.38Zm47.77,411.51H3425V2580.1h96.12Z" transform="translate(-176.34 -1391.91)"/><path class="cls-9" d="M3801.4,2972c-128.94,0-192.82-87-192.82-199s63.88-199,192.24-199c129.51,0,193.4,86.35,193.4,199C3994.22,2884.45,3929.18,2972,3801.4,2972Zm0-309.86c-67.92,0-96.7,44.09-96.7,110.84,0,66.13,29.93,111.45,96.7,111.45,67.34,0,96.69-45.32,96.69-111.45S3868.74,2662.16,3801.4,2662.16Z" transform="translate(-176.34 -1391.91)"/><path class="cls-9" d="M4443.17,2965.89h-95.55V2736.25c0-46.54-10.94-74.09-80-74.09-52.95,0-89.21,27.55-89.21,78.38v225.35h-96.13V2579.48h96.13v33.69h1.15c24.75-23.89,64.46-39.2,104.76-39.2,96.12,0,159.43,56.34,159.43,152.48Z" transform="translate(-176.34 -1391.91)"/><path class="cls-9" d="M4707.93,2972.63c-66.19,0-126.05-23.88-179.58-72.87l61.59-66.14c30.5,34.29,74.82,53.89,116.27,53.89,55.25,0,71.37-18.37,71.37-32.46,0-12.24-5.18-22-47.2-33.06-8.06-1.84-57-15.93-65-17.76-62.16-16.54-126.05-43.48-126.05-113.9,0-66.76,59.86-115.74,162.89-115.74,67.92,0,121.44,21.43,162.89,64.29L4805.21,2702a143.39,143.39,0,0,0-102.46-43.48c-54.1,0-66.77,19.6-66.77,30.62,0,15.92,19.57,22,63.89,33.68,7.49,1.84,50.08,14.09,58.14,16.53,76.55,20.21,116.27,53.28,116.27,111.46C4874.28,2916.29,4820.17,2972.63,4707.93,2972.63Z" transform="translate(-176.34 -1391.91)"/></svg>